<svg width="12" height="14" viewBox="0 0 12 14" fill="none" xmlns="http://www.w3.org/2000/svg">
<path d="M0 2C0 0.89543 0.895431 0 2 0H10C11.1046 0 12 0.895431 12 2V14H0V2Z" fill="white"/>
<path fill-rule="evenodd" clip-rule="evenodd" d="M6 10C7.10457 10 8 9.10457 8 8C8 6.89543 7.10457 6 6 6C4.89543 6 4 6.89543 4 8C4 9.10457 4.89543 10 6 10ZM6 11C7.65685 11 9 9.65685 9 8C9 6.34315 7.65685 5 6 5C4.34315 5 3 6.34315 3 8C3 9.65685 4.34315 11 6 11Z" fill="black"/>
<path fill-rule="evenodd" clip-rule="evenodd" d="M0 2C0 0.89543 0.895431 0 2 0H10C11.1046 0 12 0.895431 12 2V14H0V2ZM2 1H10C10.5523 1 11 1.44772 11 2V2.5H1V2C1 1.44772 1.44772 1 2 1ZM1 3.5V13H11V3.5H1Z" fill="black"/>
</svg>
