<svg width="13" height="11" viewBox="0 0 13 11" fill="none" xmlns="http://www.w3.org/2000/svg">
<path d="M2 1C2 0.447715 2.44772 0 3 0H12C12.5523 0 13 0.447715 13 1V6C13 6.55228 12.5523 7 12 7H3C2.44772 7 2 6.55228 2 6V1Z" fill="white"/>
<path d="M5 2.5C5 2.77614 4.77614 3 4.5 3C4.22386 3 4 2.77614 4 2.5C4 2.22386 4.22386 2 4.5 2C4.77614 2 5 2.22386 5 2.5Z" fill="#1E1E1E"/>
<path fill-rule="evenodd" clip-rule="evenodd" d="M2 1V1.83334L1.38462 1.57693C0.725928 1.30247 0 1.78642 0 2.5V4.5C0 5.21358 0.725928 5.69753 1.38462 5.42308L2 5.16667V6C2 6.55228 2.44772 7 3 7H7C7 7.12796 7.04882 7.25592 7.14645 7.35355L8 8.20711V9C8 9.82843 8.67157 10.5 9.5 10.5H12.5C12.7761 10.5 13 10.2761 13 10C13 9.72386 12.7761 9.5 12.5 9.5H9.5C9.22386 9.5 9 9.27614 9 9V8.20711L9.85355 7.35355C9.95119 7.25592 10 7.12796 10 7H12C12.5523 7 13 6.55228 13 6V1C13 0.447715 12.5523 0 12 0H3C2.44772 0 2 0.447715 2 1ZM12 1H3L3 6H12V1ZM8.79289 7H8.20711L8.5 7.29289L8.79289 7ZM1 2.5L2 2.91667V4.08333L1 4.5L1 2.5Z" fill="black"/>
</svg>
