<svg width="16" height="13" viewBox="0 0 16 13" fill="none" xmlns="http://www.w3.org/2000/svg">
<path d="M0 1C0 0.447715 0.447715 0 1 0H10C10.5523 0 11 0.447715 11 1V5C11 5.55228 10.5523 6 10 6H1C0.447715 6 0 5.55228 0 5V1Z" fill="white"/>
<path d="M1 5H5L4 11H1V5Z" fill="white"/>
<path d="M0 10H5V13H0V10Z" fill="white"/>
<path fill-rule="evenodd" clip-rule="evenodd" d="M0 5C0 5.55228 0.447715 6 1 6L1 10H0V13H5V10H4.16667L4.66667 7H5.5L6 6H10C10.5523 6 11 5.55228 11 5V4H12V3.5H15C15.2761 3.5 15.5 3.27614 15.5 3C15.5 2.72386 15.2761 2.5 15 2.5H12V2H11V1C11 0.447715 10.5523 0 10 0H1C0.447715 0 0 0.447715 0 1V5ZM10 1H1V5H5H10V1ZM3.15287 10L3.81954 6H2V10H3.15287ZM1 11V12H4V11H1Z" fill="black"/>
</svg>
