<svg width="10" height="15" viewBox="0 0 10 15" fill="none" xmlns="http://www.w3.org/2000/svg">
<path d="M1.66667 0H8.33333L10 6H0L1.66667 0Z" fill="black"/>
<path fill-rule="evenodd" clip-rule="evenodd" d="M2.64645 5.64645C2.84171 5.45118 3.15829 5.45118 3.35355 5.64645L3.93934 6.23223C4.52513 6.81802 5.47487 6.81802 6.06066 6.23223L6.64645 5.64645C6.84171 5.45118 7.15829 5.45118 7.35355 5.64645C7.54882 5.84171 7.54882 6.15829 7.35355 6.35355L6.76777 6.93934C5.79146 7.91565 4.20854 7.91565 3.23223 6.93934L2.64645 6.35355C2.45118 6.15829 2.45118 5.84171 2.64645 5.64645Z" fill="black"/>
<path fill-rule="evenodd" clip-rule="evenodd" d="M5 7C5.27614 7 5.5 7.22386 5.5 7.5V13.5C5.5 13.7761 5.27614 14 5 14C4.72386 14 4.5 13.7761 4.5 13.5V7.5C4.5 7.22386 4.72386 7 5 7Z" fill="black"/>
<path fill-rule="evenodd" clip-rule="evenodd" d="M3 14C3 13.7239 3.22386 13.5 3.5 13.5H6.5C6.77614 13.5 7 13.7239 7 14C7 14.2761 6.77614 14.5 6.5 14.5H3.5C3.22386 14.5 3 14.2761 3 14Z" fill="black"/>
</svg>
