<svg width="8" height="11" viewBox="0 0 8 11" fill="none" xmlns="http://www.w3.org/2000/svg">
<path d="M0 4C0 1.79086 1.79086 0 4 0C6.20914 0 8 1.79086 8 4V8C8 9.65685 6.65685 11 5 11H3C1.34315 11 0 9.65685 0 8V4Z" fill="white"/>
<path fill-rule="evenodd" clip-rule="evenodd" d="M7 8V4C7 2.34315 5.65685 1 4 1C2.34315 1 1 2.34315 1 4V8C1 9.10457 1.89543 10 3 10H5C6.10457 10 7 9.10457 7 8ZM4 0C1.79086 0 0 1.79086 0 4V8C0 9.65685 1.34315 11 3 11H5C6.65685 11 8 9.65685 8 8V4C8 1.79086 6.20914 0 4 0Z" fill="black"/>
<path fill-rule="evenodd" clip-rule="evenodd" d="M4 2.5C4.27614 2.5 4.5 2.72386 4.5 3V4C4.5 4.27614 4.27614 4.5 4 4.5C3.72386 4.5 3.5 4.27614 3.5 4V3C3.5 2.72386 3.72386 2.5 4 2.5Z" fill="black"/>
</svg>
