<svg width="15" height="16" viewBox="0 0 15 16" fill="none" xmlns="http://www.w3.org/2000/svg">
<path d="M7.66595 7.08096C7.87347 7.03065 8.0922 7.09208 8.24318 7.24306C8.40156 7.40143 8.46082 7.63364 8.39771 7.84854L7.90975 9.5102C7.81538 9.83155 7.64182 10.1241 7.40499 10.3609L3.17846 14.5874C2.52423 15.2417 1.46351 15.2417 0.809276 14.5874C0.149702 13.9279 0.155882 12.8566 0.823021 12.2047L5.14565 7.98064C5.40276 7.72939 5.72283 7.55209 6.07219 7.46739L7.66595 7.08096Z" fill="white"/>
<path fill-rule="evenodd" clip-rule="evenodd" d="M14.5001 0.5L13.1018 2.01575L13.1162 2.03023L8.03856 7.10791C7.92198 7.06106 7.79194 7.05042 7.66595 7.08096L6.07219 7.46739C5.72283 7.55209 5.40276 7.72939 5.14565 7.98064L0.823021 12.2047C0.155882 12.8566 0.149702 13.9279 0.809276 14.5874C1.46351 15.2417 2.52423 15.2417 3.17846 14.5874L7.40499 10.3609C7.64182 10.1241 7.81538 9.83155 7.90975 9.5102L8.39771 7.84854C8.43506 7.72135 8.42948 7.58809 8.38592 7.46767L13.4698 2.38378L13.4842 2.39815L15.0001 1L14.5001 0.5ZM5.84448 8.69585L1.52185 12.9199C1.25294 13.1826 1.25045 13.6145 1.51631 13.8803C1.78002 14.144 2.20757 14.144 2.47128 13.8803L6.69781 9.65378C6.81623 9.53536 6.90301 9.38911 6.95019 9.22843L7.24897 8.21102L6.30775 8.43923C6.13307 8.48158 5.97303 8.57023 5.84448 8.69585Z" fill="black"/>
<path fill-rule="evenodd" clip-rule="evenodd" d="M4.67686 10.8232C4.77449 10.9208 4.77449 11.0791 4.67686 11.1767L2.17686 13.6767C2.07922 13.7744 1.92093 13.7744 1.8233 13.6767C1.72567 13.5791 1.72567 13.4208 1.8233 13.3232L4.3233 10.8232C4.42093 10.7255 4.57922 10.7255 4.67686 10.8232Z" fill="black"/>
</svg>
