<svg width="16" height="14" viewBox="0 0 16 14" fill="none" xmlns="http://www.w3.org/2000/svg">
<path d="M0 4C0 3.44772 0.447715 3 1 3H13C13.5523 3 14 3.44772 14 4V11C14 11.5523 13.5523 12 13 12H1C0.447716 12 0 11.5523 0 11V4Z" fill="white"/>
<path fill-rule="evenodd" clip-rule="evenodd" d="M7.5 12H13C13.5523 12 14 11.5523 14 11V4C14 3.44772 13.5523 3 13 3H1C0.447715 3 0 3.44772 0 4V11C0 11.5523 0.447716 12 1 12H6.5V13H1.5V14H12C12.2761 14 12.5 13.7761 12.5 13.5C12.5 13.2239 12.2761 13 12 13H7.5V12ZM1 4H13V11H1V4Z" fill="black"/>
<path d="M7 2.5C7 1.11929 8.11929 0 9.5 0H13.5C14.8807 0 16 1.11929 16 2.5V5.5C16 6.88071 14.8807 8 13.5 8H9.5C8.11929 8 7 6.88071 7 5.5V2.5Z" fill="white"/>
<path d="M8 2H11V4H8V2Z" fill="black"/>
<path d="M12 2H15V4H12V2Z" fill="black"/>
<path d="M12 5H15V7H12V5Z" fill="black"/>
<path d="M8 5H11V7H8V5Z" fill="black"/>
</svg>
