<svg width="14" height="13" viewBox="0 0 14 13" fill="none" xmlns="http://www.w3.org/2000/svg">
<path fill-rule="evenodd" clip-rule="evenodd" d="M7 2.5C7 1.11929 8.11929 0 9.5 0H11.5C12.8807 0 14 1.11929 14 2.5V12.5C14 12.7761 13.7761 13 13.5 13C13.2239 13 13 12.7761 13 12.5V2.5C13 1.67157 12.3284 1 11.5 1H9.5C8.67157 1 8 1.67157 8 2.5V9.5C8 10.8807 6.88071 12 5.5 12H3.5C2.11929 12 1 10.8807 1 9.5V5C1 4.72386 1.22386 4.5 1.5 4.5C1.77614 4.5 2 4.72386 2 5V9.5C2 10.3284 2.67157 11 3.5 11H5.5C6.32843 11 7 10.3284 7 9.5V2.5Z" fill="black"/>
<path d="M0 2H3V5H0V2Z" fill="black"/>
<path d="M1 1H2V2H1V1Z" fill="black"/>
</svg>
