<svg width="16" height="14" viewBox="0 0 16 14" fill="none" xmlns="http://www.w3.org/2000/svg">
<path d="M0 9C0 7.34315 1.34315 6 3 6H13C14.6569 6 16 7.34315 16 9V11C16 12.6569 14.6569 14 13 14H3C1.34315 14 0 12.6569 0 11V9Z" fill="white"/>
<path d="M4.36553 3.34116C6.23733 1.33565 9.38172 1.23072 11.3831 3.10698L11.658 3.36476C11.8595 3.55363 12.1759 3.54342 12.3648 3.34197C12.5536 3.14051 12.5434 2.82409 12.342 2.63523L12.067 2.37744C9.66211 0.122859 5.88371 0.248944 3.63447 2.65884C3.44606 2.86071 3.45697 3.17711 3.65884 3.36552C3.86072 3.55394 4.17711 3.54303 4.36553 3.34116Z" fill="black"/>
<path d="M9.52054 4.23587C8.62076 3.39232 7.20707 3.4395 6.36553 4.34116C6.17711 4.54303 5.86072 4.55394 5.65884 4.36552C5.45697 4.17711 5.44606 3.86071 5.63447 3.65884C6.85345 2.35279 8.90115 2.28446 10.2045 3.50634L10.342 3.63523C10.5434 3.82409 10.5536 4.14051 10.3648 4.34197C10.1759 4.54342 9.85949 4.55363 9.65803 4.36476L9.52054 4.23587Z" fill="black"/>
<path fill-rule="evenodd" clip-rule="evenodd" d="M3 6C1.34315 6 0 7.34315 0 9V11C0 12.6569 1.34315 14 3 14H13C14.6569 14 16 12.6569 16 11V9C16 7.34315 14.6569 6 13 6H3ZM3.5 7C3.5 7 3.5 7 3.5 7V13H12.5V7H3.5ZM13.5 7.063V12.937C14.3626 12.715 15 11.9319 15 11V9C15 8.06808 14.3626 7.28503 13.5 7.063ZM2.5 12.937V7.063C1.63739 7.28503 1 8.06808 1 9V11C1 11.9319 1.63739 12.715 2.5 12.937Z" fill="black"/>
</svg>
