<svg width="16" height="14" viewBox="0 0 16 14" fill="none" xmlns="http://www.w3.org/2000/svg">
<path d="M11.2585 0.404794C11.5957 0.414219 11.9055 0.593056 12.0823 0.880403L13.7904 3.65683L15.3408 6.52432C15.5013 6.82109 15.5013 7.17877 15.3408 7.47554L13.7904 10.343L12.0823 13.1195C11.9055 13.4068 11.5957 13.5856 11.2585 13.5951L7.99998 13.6861L4.74146 13.5951C4.40422 13.5856 4.09446 13.4068 3.91768 13.1195L2.20955 10.343L0.659162 7.47554C0.498704 7.17877 0.498704 6.8211 0.659162 6.52432L2.20955 3.65683L3.91768 0.880403C4.09446 0.593056 4.40422 0.414219 4.74146 0.404794L7.99998 0.313721L11.2585 0.404794Z" fill="white"/>
<path fill-rule="evenodd" clip-rule="evenodd" d="M11.1913 5.15741L10.0938 3.37341L7.99998 3.31489L5.90621 3.37341L4.80864 5.15741L3.81243 6.99993L4.80864 8.84246L5.90621 10.6265L7.99997 10.685L10.0938 10.6265L11.1913 8.84245L12.1875 6.99993L11.1913 5.15741ZM13.7904 3.65683L12.0823 0.880403C11.9055 0.593056 11.5957 0.414219 11.2585 0.404794L7.99998 0.313721L4.74146 0.404794C4.40422 0.414219 4.09446 0.593056 3.91768 0.880403L2.20955 3.65683L0.659162 6.52432C0.498704 6.8211 0.498704 7.17877 0.659162 7.47554L2.20955 10.343L3.91768 13.1195C4.09446 13.4068 4.40422 13.5856 4.74146 13.5951L7.99998 13.6861L11.2585 13.5951C11.5957 13.5856 11.9055 13.4068 12.0823 13.1195L13.7904 10.343L15.3408 7.47554C15.5013 7.17877 15.5013 6.82109 15.3408 6.52432L13.7904 3.65683Z" fill="black"/>
</svg>
