<svg width="17" height="14" viewBox="0 0 17 14" fill="none" xmlns="http://www.w3.org/2000/svg">
<path d="M4 6.82335C4 5.44441 5.36262 4.47916 6.66347 4.9366L12.2286 6.89356C13.664 7.39832 14.7914 8.52923 15.2918 9.96618L16 12H4V6.82335Z" fill="white"/>
<path fill-rule="evenodd" clip-rule="evenodd" d="M1 0.5C0.723858 0.5 0.5 0.723858 0.5 1C0.5 1.27614 0.723858 1.5 1 1.5H4V9.05001C2.85888 9.28164 2 10.2905 2 11.5C2 12.8807 3.11929 14 4.5 14C5.70948 14 6.71836 13.1411 6.94999 12L16 12L15.2918 9.96618C14.7914 8.52923 13.664 7.39832 12.2286 6.89356L6.66347 4.9366C6.07825 4.73081 5.48053 4.81295 5 5.09116V1.5C5 0.947715 4.55228 0.5 4 0.5H1ZM5 6.82335V9.05001C5.97956 9.24885 6.75115 10.0204 6.94999 11H14.5929L14.3474 10.295C13.9471 9.14547 13.0452 8.24074 11.8968 7.83693L6.33174 5.87998C5.68131 5.65126 5 6.13388 5 6.82335ZM4.5 13C5.15311 13 5.70873 12.5826 5.91465 12L4 12V10.0854C3.4174 10.2913 3 10.8469 3 11.5C3 12.3284 3.67157 13 4.5 13ZM5 11H5.91465C5.764 10.5738 5.42621 10.236 5 10.0854V11Z" fill="black"/>
<path d="M17 12C17 13.1046 16.1046 14 15 14C13.8954 14 13 13.1046 13 12C13 10.8954 13.8954 10 15 10C16.1046 10 17 10.8954 17 12Z" fill="white"/>
<path fill-rule="evenodd" clip-rule="evenodd" d="M15 13C15.5523 13 16 12.5523 16 12C16 11.4477 15.5523 11 15 11C14.4477 11 14 11.4477 14 12C14 12.5523 14.4477 13 15 13ZM15 14C16.1046 14 17 13.1046 17 12C17 10.8954 16.1046 10 15 10C13.8954 10 13 10.8954 13 12C13 13.1046 13.8954 14 15 14Z" fill="black"/>
<path d="M7 11.5C7 12.8807 5.88071 14 4.5 14C3.11929 14 2 12.8807 2 11.5C2 10.1193 3.11929 9 4.5 9C5.88071 9 7 10.1193 7 11.5Z" fill="white"/>
<path d="M3.5 9.76756C3.26582 9.90303 3.06165 10.0846 2.89992 10.2999C2.68252 10.5894 2.5418 10.9397 2.50794 11.3207C2.50268 11.3797 2.5 11.4396 2.5 11.5L3.5 9.76756ZM3.5 9.76756V9.76771V9.76756ZM13.6287 9.90931C13.3865 10.0685 13.1735 10.2687 12.9998 10.5H7.32929C7.20644 10.1524 7.02134 9.83422 6.78739 9.55883C6.68773 9.44149 6.57921 9.33194 6.46284 9.23119C6.18252 8.98845 5.85674 8.7968 5.5 8.67071V6.82335C5.5 6.47861 5.84065 6.2373 6.16587 6.35166L11.731 8.30862C12.5443 8.59462 13.2164 9.1678 13.6287 9.90931ZM5.14472 9.60619C5.40201 9.69376 5.63572 9.83228 5.83384 10.0097C5.64144 9.83742 5.4154 9.70186 5.16662 9.61393L5.14472 9.60619ZM6.01324 10.1922C6.1797 10.3847 6.31007 10.6092 6.39382 10.8553L6.38607 10.8334C6.30208 10.5958 6.17464 10.3789 6.01324 10.1922ZM6.23229 12.5H6.23244C6.09697 12.7342 5.91538 12.9384 5.70009 13.1001C5.60832 13.169 5.5105 13.2302 5.40746 13.2828C5.75229 13.1068 6.03918 12.8338 6.23229 12.5Z" stroke="black"/>
</svg>
