<svg width="11" height="14" viewBox="0 0 11 14" fill="none" xmlns="http://www.w3.org/2000/svg">
<path d="M2.1328 2.12476C2.06084 0.973361 2.97526 0 4.1289 0H6.8711C8.02474 0 8.93917 0.97336 8.8672 2.12476L8.5 8H2.5L2.1328 2.12476Z" fill="white"/>
<path d="M2.5 7H8.5L9.46353 8.4453C9.90657 9.10985 9.43018 10 8.63148 10H2.36852C1.56982 10 1.09343 9.10985 1.53647 8.4453L2.5 7Z" fill="white"/>
<path fill-rule="evenodd" clip-rule="evenodd" d="M1.29982 8.75734C1.32654 8.78214 1.35366 8.8063 1.38113 8.82984C1.2804 9.40848 1.71744 10 2.36852 10H4V11H5V13H4C3.72386 13 3.5 13.2239 3.5 13.5C3.5 13.7761 3.72386 14 4 14H7C7.27614 14 7.5 13.7761 7.5 13.5C7.5 13.2239 7.27614 13 7 13H6V11H7V10H8.63148C9.01921 10 9.33085 9.79022 9.49836 9.49831C9.68666 9.37814 9.87027 9.23605 10.0402 9.07169C10.7185 8.41591 11.1896 7.39456 10.9254 6.01525C10.8865 5.5384 10.5024 5.31212 10.303 5.22605C10.0627 5.12233 9.77373 5.07282 9.5156 5.04492C9.24962 5.01618 8.95793 5.00537 8.68748 5.00169L8.8672 2.12476C8.93917 0.97336 8.02474 0 6.8711 0H4.1289C2.97526 0 2.06084 0.973361 2.1328 2.12476L2.344 5.50263C2.14282 5.50654 1.93167 5.51568 1.73704 5.53586C1.52192 5.55818 1.28114 5.59779 1.08087 5.68077C0.914678 5.74962 0.594624 5.93065 0.562147 6.31214C0.342023 7.4156 0.73461 8.2327 1.29982 8.75734ZM6.87118 1H4.12899C3.55216 1 3.09495 1.48668 3.13093 2.06238L3.43953 7H7.56063L7.86923 2.06238C7.90521 1.48668 7.448 1 6.87118 1ZM2.40644 6.50166L2.44292 7.08541L1.88248 7.92607C1.6119 7.62967 1.42577 7.20272 1.52906 6.58292C1.59931 6.56366 1.70237 6.54483 1.84021 6.53053C2.01809 6.51208 2.21365 6.50452 2.40644 6.50166ZM9.76517 6.35372C9.90018 7.19762 9.62312 7.7555 9.25187 8.12801L8.55721 7.08602L8.6094 6.25091C8.8734 6.25321 9.1466 6.26174 9.39179 6.28823C9.5572 6.3061 9.68087 6.32965 9.76517 6.35372ZM3.03505 8H7.96468L8.63135 9H2.36838L3.03505 8Z" fill="black"/>
</svg>
