<svg width="16" height="11" viewBox="0 0 16 11" fill="none" xmlns="http://www.w3.org/2000/svg">
<path d="M0 1C0 0.447715 0.447715 0 1 0H15C15.5523 0 16 0.447715 16 1V8C16 8.55229 15.5523 9 15 9H1C0.447715 9 0 8.55229 0 8V1Z" fill="white"/>
<path fill-rule="evenodd" clip-rule="evenodd" d="M8.75 9H15C15.5523 9 16 8.55229 16 8V1C16 0.447715 15.5523 0 15 0H1C0.447715 0 0 0.447715 0 1V8C0 8.55229 0.447715 9 1 9H7.75V9.5H5C4.72386 9.5 4.5 9.72386 4.5 10C4.5 10.2761 4.72386 10.5 5 10.5H11.5C11.7761 10.5 12 10.2761 12 10C12 9.72386 11.7761 9.5 11.5 9.5H8.75V9ZM1 1H15V8H1V1Z" fill="black"/>
</svg>
